<?xml version="1.0" standalone="no"?>
<!DOCTYPE svg PUBLIC "-//W3C//DTD SVG 20010904//EN"
 "http://www.w3.org/TR/2001/REC-SVG-20010904/DTD/svg10.dtd">
<svg version="1.0" xmlns="http://www.w3.org/2000/svg"
 width="1000.000000pt" height="1000.000000pt" viewBox="0 0 1000.000000 1000.000000"
 preserveAspectRatio="xMidYMid meet">
<metadata>
Created by potrace 1.11, written by Peter Selinger 2001-2013
</metadata>
<g transform="translate(0.000000,1000.000000) scale(0.100000,-0.100000)"
fill="#000000" stroke="none">
<path d="M182 8367 c11 -23 42 -80 68 -127 26 -47 66 -121 90 -165 24 -44 91
-168 150 -275 59 -107 124 -226 145 -265 21 -38 48 -88 60 -110 12 -22 38 -69
57 -105 20 -36 101 -184 180 -330 80 -146 164 -301 188 -345 24 -44 76 -138
115 -210 39 -71 93 -170 120 -220 26 -49 56 -103 65 -120 10 -16 32 -57 50
-90 69 -128 144 -264 175 -320 18 -34 89 -163 248 -455 16 -30 40 -73 52 -95
17 -33 127 -234 305 -560 15 -27 65 -120 112 -205 47 -85 100 -182 118 -215
36 -67 258 -473 300 -550 15 -27 41 -75 58 -107 17 -31 125 -229 240 -440 115
-210 224 -410 242 -443 18 -33 43 -78 55 -100 13 -22 40 -71 60 -110 21 -38
46 -84 56 -101 10 -18 41 -76 70 -130 29 -55 55 -103 59 -109 4 -5 26 -46 50
-90 42 -78 69 -129 137 -250 18 -33 47 -88 65 -123 18 -34 35 -62 38 -62 3 0
23 33 45 73 21 39 47 88 58 107 21 36 238 434 290 530 16 30 109 201 207 380
97 179 189 348 204 375 15 28 31 57 36 65 5 8 61 112 125 230 64 118 121 224
127 235 21 35 185 338 278 510 24 44 54 97 67 117 13 21 23 40 23 43 0 3 120
224 266 493 147 268 282 516 301 552 20 36 46 83 58 105 12 22 38 69 57 105
19 36 77 142 128 235 51 94 106 195 122 225 85 156 524 962 548 1005 15 28 83
151 150 275 67 124 135 248 150 275 95 174 157 287 183 335 17 30 43 80 59
110 16 30 33 62 39 70 23 37 219 403 219 410 0 4 -381 7 -846 6 l-845 -1 -50
-95 c-28 -52 -96 -183 -151 -290 -55 -107 -118 -226 -138 -265 -40 -75 -126
-241 -260 -500 -46 -88 -106 -205 -135 -260 -112 -213 -175 -336 -255 -490
-46 -88 -100 -191 -120 -230 -21 -38 -72 -137 -115 -220 -43 -82 -103 -199
-135 -260 -63 -121 -156 -300 -275 -530 -43 -82 -94 -181 -115 -220 -37 -69
-155 -296 -244 -470 -26 -49 -50 -93 -54 -97 -4 -4 -48 71 -97 167 -50 95
-106 204 -126 242 -19 37 -84 163 -143 278 -60 116 -127 246 -151 290 -23 44
-82 157 -130 250 -48 94 -115 222 -148 285 -32 63 -93 180 -135 260 -41 80
-105 204 -142 275 -37 72 -99 191 -137 265 -39 74 -97 187 -130 250 -33 63
-97 187 -143 275 -77 149 -110 213 -275 530 -34 66 -104 201 -155 300 -51 99
-103 198 -116 220 l-22 40 -851 2 -851 1 22 -41z"/>
<path d="M8112 7388 c-52 -95 -212 -391 -267 -493 -24 -44 -67 -126 -98 -182
-30 -56 -57 -108 -60 -116 -5 -12 32 -14 258 -14 l264 0 64 71 c35 39 124 139
197 221 74 83 139 155 144 161 6 6 38 42 71 80 33 37 67 75 75 84 8 9 51 56
94 106 44 49 93 104 110 122 l30 32 -421 0 -422 0 -39 -72z"/>
<path d="M7920 6247 c-3 -3 -39 -7 -80 -11 -97 -8 -163 -19 -280 -46 -336 -79
-647 -268 -845 -515 -22 -28 -43 -52 -46 -55 -16 -13 -121 -183 -157 -255 -68
-137 -136 -361 -157 -515 -38 -288 -31 -586 20 -820 9 -41 18 -85 21 -98 9
-46 82 -239 114 -302 28 -56 97 -165 157 -250 36 -50 150 -164 223 -223 242
-195 506 -301 890 -358 136 -21 677 -16 742 6 7 2 29 6 48 9 287 44 572 166
757 323 197 167 319 343 419 606 36 94 38 109 13 112 -17 3 -103 12 -184 20
-27 3 -66 8 -85 10 -19 2 -57 7 -85 10 -110 11 -142 14 -200 21 -33 3 -64 7
-68 8 -5 0 -32 -44 -61 -99 -73 -141 -118 -206 -207 -295 -186 -188 -431 -283
-729 -284 -75 0 -238 12 -248 18 -4 2 -24 7 -45 10 -66 10 -216 64 -285 102
-102 56 -144 87 -230 172 -190 186 -308 454 -337 765 l-5 57 68 1 c37 0 669 0
1406 1 l1338 0 -5 222 c-3 121 -8 232 -11 246 -4 14 -8 41 -11 61 -8 65 -45
212 -76 304 -122 364 -398 684 -735 854 -169 85 -350 142 -534 167 -24 3 -56
8 -70 11 -36 6 -435 15 -440 10z m307 -472 c166 -17 321 -67 446 -143 222
-135 352 -315 416 -574 20 -82 24 -101 36 -185 l6 -41 -1052 0 -1052 0 6 57
c8 70 49 233 72 286 10 22 19 43 19 47 1 3 29 48 62 100 100 151 232 269 390
347 84 41 225 87 299 97 150 20 228 22 352 9z"/>
</g>
</svg>
